<svg width="166" height="24" viewBox="0 0 166 24" fill="none" xmlns="http://www.w3.org/2000/svg">
<path d="M16.2456 3.104L23.8296 22.688C23.979 23.072 23.9683 23.392 23.7976 23.648C23.627 23.8827 23.339 24 22.9336 24H20.6616C20.0003 24 19.563 23.712 19.3496 23.136L18.2616 20.224H5.94163L4.85363 23.136C4.64029 23.712 4.20296 24 3.54163 24H1.23763C0.832292 24 0.544292 23.8827 0.373626 23.648C0.202959 23.392 0.192292 23.072 0.341626 22.688L7.92563 3.104C8.13896 2.528 8.56563 2.24 9.20563 2.24H14.9656C15.6056 2.24 16.0323 2.528 16.2456 3.104ZM10.5176 16.288H16.7576L13.0456 6.464H11.1576L6.74163 18.144C6.69896 18.3787 6.80563 18.496 7.06163 18.496H7.34963C7.58429 18.496 7.78696 18.4 7.95763 18.208L8.69363 17.312C9.22696 16.6293 9.83496 16.288 10.5176 16.288ZM29.3839 24H27.2719C26.5252 24 26.1519 23.6267 26.1519 22.88V8.64C26.1519 7.89333 26.5252 7.52 27.2719 7.52H29.3839C30.1305 7.52 30.5039 7.89333 30.5039 8.64V9.216C30.5039 9.42933 30.6105 9.536 30.8239 9.536H31.3039C31.4745 9.536 31.6025 9.48267 31.6879 9.376L32.6799 8.224C33.0852 7.75467 33.5332 7.52 34.0239 7.52H39.5599C39.9439 7.52 40.3919 7.79733 40.9039 8.352L42.2479 9.824C42.6105 10.208 42.7919 10.6667 42.7919 11.2V22.88C42.7919 23.6267 42.4185 24 41.6719 24H39.5919C38.8452 24 38.4719 23.6267 38.4719 22.88V11.488H30.8239C30.6105 11.488 30.5039 11.5947 30.5039 11.808V22.88C30.5039 23.6267 30.1305 24 29.3839 24ZM53.8444 4.992H52.1164C51.711 4.992 51.4124 4.81067 51.2204 4.448L50.3884 3.104C50.175 2.74133 50.175 2.38933 50.3884 2.048L51.2204 0.703999C51.4124 0.341331 51.711 0.159998 52.1164 0.159998H53.8124C54.1964 0.159998 54.5057 0.341331 54.7404 0.703999L55.5404 2.048C55.7537 2.38933 55.7537 2.74133 55.5404 3.104L54.7404 4.448C54.5057 4.81067 54.207 4.992 53.8444 4.992ZM59.1244 24H53.9724C53.5884 24 53.1404 23.7227 52.6284 23.168L51.2844 21.696C50.9217 21.312 50.7404 20.8533 50.7404 20.32V11.456H46.3244C45.5777 11.456 45.2044 11.0827 45.2044 10.336V8.64C45.2044 7.89333 45.5777 7.52 46.3244 7.52H53.9724C54.719 7.52 55.0924 7.89333 55.0924 8.64V20.096H59.1244C59.871 20.096 60.2444 20.4693 60.2444 21.216V22.88C60.2444 23.6267 59.871 24 59.1244 24ZM66.0621 24H63.7581C63.0115 24 62.6381 23.6267 62.6381 22.88V3.36C62.6381 2.61333 63.0115 2.24 63.7581 2.24H66.0621C66.8088 2.24 67.1821 2.61333 67.1821 3.36V4.032C67.1821 4.24533 67.2888 4.352 67.5021 4.352H68.1421L69.3581 2.944C69.7635 2.47467 70.2115 2.24 70.7021 2.24H75.1181C75.6088 2.24 76.0568 2.47467 76.4621 2.944L77.6781 4.352H78.6381L79.8541 2.944C80.2595 2.47467 80.7075 2.24 81.1981 2.24H84.9421C85.3261 2.24 85.7741 2.51733 86.2861 3.072L87.6301 4.544C87.9928 4.928 88.1741 5.38667 88.1741 5.92V22.88C88.1741 23.6267 87.8008 24 87.0541 24H84.7501C84.0035 24 83.6301 23.6267 83.6301 22.88V7.008C83.6301 6.58133 83.4168 6.368 82.9901 6.368H78.3181C77.8915 6.368 77.6781 6.58133 77.6781 7.008V22.88C77.6781 23.6267 77.3048 24 76.5581 24H74.2541C73.5075 24 73.1341 23.6267 73.1341 22.88V7.008C73.1341 6.58133 72.9208 6.368 72.4941 6.368H67.8221C67.3955 6.368 67.1821 6.58133 67.1821 7.008V22.88C67.1821 23.6267 66.8088 24 66.0621 24ZM99.8136 24H94.1176C93.7336 24 93.2856 23.7227 92.7736 23.168L91.4296 21.696C91.067 21.312 90.8856 20.8533 90.8856 20.32V16.224C90.8856 15.4773 91.259 15.104 92.0056 15.104H94.0216C94.7683 15.104 95.1416 15.4773 95.1416 16.224V19.776C95.1416 19.9893 95.2483 20.096 95.4616 20.096H102.886V11.424H94.1496C93.403 11.424 93.0296 11.0507 93.0296 10.304V8.64C93.0296 7.89333 93.403 7.52 94.1496 7.52H103.974C104.358 7.52 104.806 7.79733 105.318 8.352L106.662 9.824C107.024 10.208 107.206 10.6667 107.206 11.2V20.096H108.006C108.752 20.096 109.126 20.4693 109.126 21.216V22.88C109.126 23.6267 108.752 24 108.006 24H105.35C104.966 24 104.518 23.7227 104.006 23.168L103.078 22.144C102.992 22.0373 102.864 21.984 102.694 21.984H102.47C102.299 21.984 102.171 22.0373 102.086 22.144L101.158 23.168C100.646 23.7227 100.198 24 99.8136 24ZM125.53 15.2H127.386C128.132 15.2 128.506 15.5733 128.506 16.32V20.32C128.506 20.8533 128.324 21.312 127.962 21.696L126.618 23.168C126.106 23.7227 125.658 24 125.274 24H116.378C115.994 24 115.546 23.7227 115.034 23.168L113.69 21.696C113.327 21.312 113.146 20.8533 113.146 20.32V11.456H111.066C110.319 11.456 109.946 11.0827 109.946 10.336V8.64C109.946 7.89333 110.319 7.52 111.066 7.52H113.146V5.12C113.146 4.37333 113.519 4 114.266 4H116.378C117.124 4 117.498 4.37333 117.498 5.12V9.216C117.498 9.42933 117.604 9.536 117.818 9.536H118.33C118.479 9.536 118.607 9.472 118.714 9.344L119.674 8.224C120.079 7.75467 120.527 7.52 121.018 7.52H127.066C127.812 7.52 128.186 7.89333 128.186 8.64V10.336C128.186 11.0827 127.812 11.456 127.066 11.456H117.498V20.064H124.41V16.32C124.41 15.5733 124.783 15.2 125.53 15.2ZM145.456 24H136.112C135.493 24 135.045 23.744 134.768 23.232L130.96 16.512C130.661 16 130.661 15.488 130.96 14.976L134.768 8.288C135.045 7.776 135.493 7.52 136.112 7.52H145.296C146.042 7.52 146.416 7.89333 146.416 8.64V10.304C146.416 11.0507 146.042 11.424 145.296 11.424H137.648L135.216 15.744L137.648 20.096H145.456C146.202 20.096 146.576 20.4693 146.576 21.216V22.88C146.576 23.6267 146.202 24 145.456 24ZM163.894 8.352L165.238 9.824C165.601 10.208 165.782 10.6667 165.782 11.2V22.88C165.782 23.6267 165.409 24 164.662 24H162.582C161.835 24 161.462 23.6267 161.462 22.88V11.488H153.814C153.601 11.488 153.494 11.5947 153.494 11.808V22.88C153.494 23.6267 153.121 24 152.374 24H150.262C149.515 24 149.142 23.6267 149.142 22.88V3.36C149.142 2.61333 149.515 2.24 150.262 2.24H152.374C153.121 2.24 153.494 2.61333 153.494 3.36V9.216C153.494 9.42933 153.601 9.536 153.814 9.536H154.294C154.465 9.536 154.593 9.48267 154.678 9.376L155.67 8.224C156.075 7.75467 156.523 7.52 157.014 7.52H162.55C162.934 7.52 163.382 7.79733 163.894 8.352Z" fill="#1D1D1D"/>
</svg>
